<svg width="24" height="24" viewBox="0 0 24 24" fill="none" xmlns="http://www.w3.org/2000/svg">
<path opacity="0.4" d="M7.916 22H16.084C19.623 22 22 19.724 22 16.335V7.665C22 4.276 19.623 2 16.084 2H7.916C4.378 2 2 4.277 2 7.666L2 16.335C2 19.724 4.378 22 7.916 22Z" fill="url(#paint0_linear_33_676)"/>
<path d="M12.855 16.2792L16.62 12.5312C16.903 12.2492 16.903 11.7502 16.62 11.4672L12.855 7.71918C12.561 7.42718 12.086 7.42818 11.794 7.72218C11.502 8.01618 11.502 8.49018 11.796 8.78318L14.273 11.2502H7.91797C7.50297 11.2502 7.16797 11.5862 7.16797 12.0002C7.16797 12.4142 7.50297 12.7502 7.91797 12.7502H14.273L11.796 15.2162C11.649 15.3632 11.576 15.5552 11.576 15.7482C11.576 15.9392 11.649 16.1312 11.794 16.2772C12.086 16.5702 12.561 16.5712 12.855 16.2792Z" fill="url(#paint1_linear_33_676)"/>
<defs>
<linearGradient id="paint0_linear_33_676" x1="-3.13158" y1="23.4493" x2="27.724" y2="7.06634" gradientUnits="userSpaceOnUse">
<stop stop-color="#FFC881"/>
<stop offset="1" stop-color="#DA8517"/>
</linearGradient>
<linearGradient id="paint1_linear_33_676" x1="4.68833" y1="17.1495" x2="19.1099" y2="8.92402" gradientUnits="userSpaceOnUse">
<stop stop-color="#FFC881"/>
<stop offset="1" stop-color="#DA8517"/>
</linearGradient>
</defs>
</svg>
